# xmcd CD Database Entry
#
# Track frame offsets:
# 150
# 19652
# 52117
# 72177
# 101732
# 120815
# 149587
# 169315
# 193127
# 214847
# 237417
#
# Disc length: 3442 seconds
#
# Revision: 2
# Processed by: cddbd v1.4PL0 Copyright (c) Steve Scherf et al.
# Submitted via: tcd 2.0b
#
DISCID=a40d700b
DTITLE=The Bruce Katz Band - Three Feet Off The Ground
DYEAR=1900
DGENRE=
TTITLE0=Beef Jerky
TTITLE1=In The Shadow
TTITLE2=Wrecking Ball
TTITLE3=Way Down Time
TTITLE4=Three Feet Off The Ground
TTITLE5=Walk With Me
TTITLE6=You're It
TTITLE7=Jet Lag
TTITLE8=The Hook
TTITLE9=Key To The City
TTITLE10=Switchin'
EXTD=
EXTT0=
EXTT1=
EXTT2=
EXTT3=
EXTT4=
EXTT5=
EXTT6=
EXTT7=
EXTT8=
EXTT9=
EXTT10=
PLAYORDER=
